<svg xmlns="http://www.w3.org/2000/svg" viewBox="0 0 800 500">
  <defs>
    <linearGradient id="bg" x1="0" y1="0" x2="1" y2="1">
      <stop offset="0%" stop-color="#7f1d1d"/>
      <stop offset="100%" stop-color="#450a0a"/>
    </linearGradient>
  </defs>
  <rect width="800" height="500" fill="url(#bg)"/>
  <g transform="translate(180,120)">
    <rect x="0" y="240" width="120" height="22" rx="6" fill="#f8fafc"/>
    <rect x="6" y="100" width="18" height="150" fill="#cbd5e1"/>
    <path d="M24 100 L250 60 Q270 56 258 80 L210 140 Q190 175 150 175 L60 160 Z" fill="#e2e8f0"/>
    <path d="M150 175 L150 262" stroke="#cbd5e1" stroke-width="12"/>
  </g>
  <g transform="translate(430,60)">
    <rect x="0" y="0" width="60" height="12" rx="6" fill="#f8fafc"/>
    <line x1="30" y1="12" x2="30" y2="70" stroke="#f8fafc" stroke-width="8"/>
    <path d="M-10 70 L70 70" stroke="#f8fafc" stroke-width="8" stroke-linecap="round"/>
    <path d="M-10 70 Q-30 95 -50 90" fill="none" stroke="#fbbf24" stroke-width="10" stroke-linecap="round"/>
    <path d="M70 70 Q90 95 110 90" fill="none" stroke="#fbbf24" stroke-width="10" stroke-linecap="round"/>
    <circle cx="-50" cy="90" r="26" fill="none" stroke="#fbbf24" stroke-width="8"/>
    <circle cx="110" cy="90" r="26" fill="none" stroke="#fbbf24" stroke-width="8"/>
    <text x="30" y="155" font-family="Georgia, serif" font-size="34" fill="#fbbf24" text-anchor="middle">العدل</text>
  </g>
</svg>